<svg xmlns="http://www.w3.org/2000/svg" version="1.1" xmlns:xlink="http://www.w3.org/1999/xlink" xmlns:svgjs="http://svgjs.dev/svgjs" width="1440" height="4000" preserveAspectRatio="none" viewBox="0 0 1440 4000"><g mask="url(&quot;#SvgjsMask2714&quot;)" fill="none"><circle r="14.07" cx="769.84" cy="2985.06" filter="url(#SvgjsFilter2715)" fill="rgba(46, 78, 192, 0.14)"></circle><circle r="20.63" cx="1222.49" cy="1103.3400000000001" filter="url(#SvgjsFilter2715)" fill="rgba(46, 78, 192, 0.14)"></circle><circle r="19.725" cx="1417.365" cy="3393.735" filter="url(#SvgjsFilter2715)" fill="rgba(46, 78, 192, 0.14)"></circle><circle r="19.475" cx="788.5450000000001" cy="704.895" filter="url(#SvgjsFilter2715)" fill="rgba(46, 78, 192, 0.14)"></circle><circle r="23.835" cx="287.16499999999996" cy="2377.555" filter="url(#SvgjsFilter2715)" fill="rgba(46, 78, 192, 0.14)"></circle><circle r="14.435" cx="518.655" cy="595.425" filter="url(#SvgjsFilter2715)" fill="rgba(46, 78, 192, 0.14)"></circle><circle r="18.23" cx="1120.63" cy="3717.61" filter="url(#SvgjsFilter2715)" fill="rgba(46, 78, 192, 0.14)"></circle><circle r="13.615" cx="1420.795" cy="538.325" filter="url(#SvgjsFilter2715)" fill="rgba(46, 78, 192, 0.14)"></circle><circle r="13.6" cx="1043.6999999999998" cy="211.13" filter="url(#SvgjsFilter2715)" fill="rgba(46, 78, 192, 0.14)"></circle><circle r="21.765" cx="934.845" cy="3934.5049999999997" filter="url(#SvgjsFilter2715)" fill="rgba(46, 78, 192, 0.14)"></circle><circle r="22.525" cx="765.6949999999999" cy="999.0749999999999" filter="url(#SvgjsFilter2715)" fill="rgba(46, 78, 192, 0.14)"></circle><circle r="17.755" cx="723.585" cy="185.345" filter="url(#SvgjsFilter2715)" fill="rgba(46, 78, 192, 0.14)"></circle><circle r="12.44" cx="342.28" cy="1397.5700000000002" filter="url(#SvgjsFilter2715)" fill="rgba(46, 78, 192, 0.14)"></circle><circle r="16.97" cx="522.5" cy="3405.4399999999996" filter="url(#SvgjsFilter2715)" fill="rgba(46, 78, 192, 0.14)"></circle><circle r="20.22" cx="108.7" cy="2142.8399999999997" filter="url(#SvgjsFilter2715)" fill="rgba(46, 78, 192, 0.14)"></circle><circle r="23.38" cx="1226.89" cy="2299.59" filter="url(#SvgjsFilter2715)" fill="rgba(46, 78, 192, 0.14)"></circle><circle r="22.28" cx="334.09000000000003" cy="967.39" filter="url(#SvgjsFilter2715)" fill="rgba(46, 78, 192, 0.14)"></circle><circle r="21.26" cx="536.25" cy="1392.26" filter="url(#SvgjsFilter2715)" fill="rgba(46, 78, 192, 0.14)"></circle><circle r="19.89" cx="1273.16" cy="1808.72" filter="url(#SvgjsFilter2715)" fill="rgba(46, 78, 192, 0.14)"></circle><circle r="22.53" cx="884.03" cy="423.25" filter="url(#SvgjsFilter2715)" fill="rgba(46, 78, 192, 0.14)"></circle><path d="M1498.8 2258.2L1474.5 2208 1512 2209.4C1515.9 2209.9 1520.3 2206.4 1521.8 2201 1520.8 2196 1517.3 2191.6 1513.4 2191.1L1464.1 2188.3 1441.7 2141.5 1541.8 2148.2C1548.3 2148.1 1552.7 2144.7 1551.7 2139.7 1553.1 2134.3 1549.7 2129.9 1543.3 2129.9L1432.8 2122.8 1411.5 2081 1471.4 1990.6 1512.8 1992.4 1563.9 2098.8C1565.4 2099.8 1566.9 2100.7 1568.3 2101.7 1569.8 2102.7 1573.8 2103.2 1576.2 2102.7 1582.1 2100.2 1583.6 2094.8 1580.1 2090.4L1533.5 1993.4 1584.3 1997.1 1609.6 2045.9C1608.6 2047.4 1610.1 2048.4 1611.6 2049.3 1614.5 2051.3 1618.5 2051.8 1621.9 2049.8 1625.4 2047.8 1626.8 2042.4 1625.8 2037.5L1605 1998.1 1668.6 2001.8C1672.6 2002.3 1677 1998.8 1678.5 1993.4 1677.5 1988.5 1674 1984.1 1670.1 1983.6L1610.4 1980.3 1631 1949.2C1633.9 1944.7 1631.5 1938.8 1628.5 1936.9 1624 1933.9 1617.6 1933.9 1614.7 1938.4L1588.2 1978.4 1537.4 1974.6 1592.4 1891.6C1595.3 1887.2 1594.3 1882.2 1589.9 1879.3 1585.4 1876.3 1580.5 1877.3 1577.5 1881.8L1516.7 1973.7 1472.8 1972.3 1424.7 1874.4 1447.3 1840.3 1560.2 1846.8C1565.6 1848.3 1571 1843.4 1570 1838.4 1571.5 1833 1567 1830 1561.6 1828.6L1459 1822.5 1487.5 1779.5 1538.3 1783.3C1542.2 1783.8 1547.7 1778.8 1548.1 1774.9S1543.7 1765.5 1538.2 1764.1L1499.3 1761.7 1533.6 1709.8C1536.6 1705.4 1534.1 1699.5 1529.7 1696.5 1526.7 1694.6 1520.3 1694.6 1517.3 1699L1483 1750.9 1464.1 1715C1462.2 1711.5 1457.7 1708.6 1451.8 1711.1 1448.4 1713.1 1445.9 1720 1447.9 1723.4L1471.2 1768.7 1442.7 1811.7 1397.1 1719.6C1393.6 1715.2 1389.2 1712.2 1383.3 1714.7 1379.8 1716.7 1377.4 1723.6 1379.4 1727.1L1430.9 1829.5 1408.4 1863.6 1299.4 1857.5 1281 1817.6 1341.9 1725.7C1344.8 1721.2 1343.8 1716.3 1339.4 1713.4 1334.9 1710.4 1328.5 1710.4 1325.6 1714.9L1270.6 1797.9 1247.3 1752.6 1273.8 1712.6C1276.8 1708.1 1275.7 1703.2 1271.3 1700.3 1266.9 1697.3 1261.9 1698.3 1259 1702.8L1238.4 1733.9 1212.1 1680.2C1210.1 1676.8 1203.2 1674.3 1199.7 1676.3 1195.3 1679.8 1192.4 1684.2 1195.8 1688.7L1222.6 1744.8 1179.7 1742C1174.8 1743 1170.4 1746.4 1169.9 1750.4 1169.4 1754.3 1171.4 1757.8 1174.3 1759.7 1174.3 1759.7 1175.8 1760.7 1178.3 1760.2L1233 1764.5 1256.3 1809.8 1148.8 1804.7C1143.4 1803.2 1139 1806.7 1139 1813.1 1139.5 1815.5 1140 1818 1143 1820 1144.4 1820.9 1145.9 1821.9 1147.4 1822.9L1265.3 1828.5 1283.1 1865.9 1223.2 1956.3 1176.4 1953 1126.8 1854C1124.3 1848.1 1118.9 1846.7 1114.5 1850.1 1109.5 1851.1 1108.1 1856.6 1110.6 1862.5L1155.7 1952.1 1103.9 1949.8 1082.1 1905.4C1080.1 1902 1074.7 1900.5 1069.7 1901.5 1065.3 1905 1062.4 1909.5 1065.8 1913.9L1081.7 1947.9 1026 1945.1C1020.6 1943.6 1017.6 1948 1016.2 1953.5 1016.7 1955.9 1018.6 1959.4 1021.6 1961.3 1021.6 1961.3 1023.1 1962.3 1024.6 1963.3L1084.2 1966.6 1059.7 2003.6C1057.7 2006.6 1057.7 2013 1062.2 2016 1066.6 2018.9 1072.5 2016.4 1074.5 2013.5L1104.9 1967.5 1156.7 1969.8 1096.8 2060.2C1093.9 2064.7 1096.4 2070.6 1100.8 2073.5S1110.2 2075.5 1113.1 2071L1178.9 1971.7 1221.8 1974.6 1269.9 2072.5 1244.4 2111.1 1130 2103.5C1125.1 2104.5 1120.6 2108 1119.2 2113.4 1119.7 2115.9 1121.7 2119.3 1124.6 2121.3 1126.1 2122.3 1127.6 2123.3 1130.1 2122.8L1232.6 2128.9 1204.2 2171.8 1152.4 2169.5C1148.4 2169 1144 2172.5 1142.6 2177.9 1143.6 2182.9 1147 2187.3 1151 2187.8L1192.4 2189.6 1161 2237.1C1159 2240 1160.5 2247.4 1163.5 2249.4 1167.9 2252.3 1175.3 2250.8 1177.3 2247.8L1208.7 2200.4 1225.1 2236.9C1226.6 2237.8 1228 2238.8 1229.5 2239.8 1232.5 2241.8 1236.4 2242.3 1238.9 2241.7 1243.3 2238.3 1244.8 2232.9 1243.8 2227.9L1220.5 2182.6 1248.9 2139.7 1294.6 2231.7C1297.1 2237.6 1302.5 2239.1 1305.9 2237.1 1311.8 2234.6 1313.3 2229.2 1312.3 2224.3L1260.7 2121.9 1286.2 2083.3 1395.2 2089.4 1414.6 2127.8 1348.8 2227.1C1345.9 2231.6 1346.9 2236.5 1351.3 2239.4 1355.7 2242.4 1360.7 2241.4 1363.6 2236.9L1423.5 2146.5 1445.8 2193.3 1415.4 2239.3C1413.4 2242.2 1414.9 2249.6 1419.4 2252.6 1423.8 2255.5 1429.7 2253 1431.7 2250.1L1456.2 2213 1482.5 2266.7C1484 2267.6 1484 2267.6 1485.5 2268.6 1488.5 2270.6 1492.4 2271.1 1494.9 2270.6 1499.3 2267.1 1500.8 2261.7 1498.8 2258.2ZM1298 2065.5L1286.2 2064.1 1281.7 2054.7 1242.5 1975.5 1238.1 1966.1 1244 1957.2 1292.1 1884.6 1298 1875.7 1308.3 1876.2 1396.6 1881.3 1406.9 1881.8 1412.9 1892.1 1450.6 1970.4 1456.5 1980.8 1450.7 1989.7 1402.5 2062.3 1396.7 2071.2 1384.8 2069.7 1298 2065.5Z" fill="rgba(46, 78, 192, 0.14)"></path><path d="M585.7 3757.4L631.1 3617.1 748.5 3558.1 741 3689.3 630.2 3786.7C630.2 3786.7 629.3 3788.2 629.3 3788.2 627.3 3791.1 628.3 3796.1 630.3 3799.5 633.8 3803.9 640.2 3803.9 643.2 3799.4L739.7 3714 736.2 3777.6 694.1 3815.8C694.1 3815.8 693.1 3817.3 693.1 3817.3 691.1 3820.3 692.1 3825.2 694.1 3828.7 697.6 3833.1 704 3833 707 3828.6L736.4 3803.2 733.2 3850.1C732.8 3854 737.7 3859.4 741.7 3859.9 747.1 3861.3 751 3855.4 751.5 3851.4L754.6 3804.6 780 3834C783.5 3838.4 789.9 3838.4 792.8 3833.9 797.2 3830.4 797.2 3824 792.7 3821.1L754.5 3778.9 759.4 3716.3 844.9 3812.8C848.4 3817.3 854.8 3817.2 857.7 3812.8 862.1 3809.3 862.1 3802.9 857.6 3799.9L760.3 3689.2 767.7 3557.9 879.2 3631.2 909.3 3776.4C910.3 3781.3 914.7 3784.3 919.7 3783.2 924.6 3782.2 927.5 3777.8 926.5 3772.8L900 3644.8 953.5 3680 964.7 3734.1C965.7 3739 970.2 3742 975.1 3740.9 980 3739.9 982.9 3735.5 981.9 3730.5L974.3 3693.6 1015.9 3720.9C1019.4 3725.4 1025.3 3722.9 1028.2 3718.4 1031.1 3713.9 1030.1 3709 1025.6 3706.1L987 3680.7 1023.9 3673.1C1028.9 3672 1031.8 3667.6 1030.8 3662.7S1025.3 3654.8 1020.4 3655.8L966.2 3667 912.7 3631.9 1040.7 3605.4C1045.7 3604.4 1048.6 3599.9 1047.6 3595 1046.5 3590.1 1042.1 3587.1 1037.2 3588.2L891.9 3618.2 782 3546 899.4 3487 1035.8 3532C1041.2 3533.4 1045.6 3529.9 1048.6 3525.5 1050 3520 1046.5 3515.6 1042.1 3512.7L919.5 3472.6 976.5 3444.1 1030.4 3462.5C1035.8 3463.9 1040.2 3460.4 1043.2 3456 1044.6 3450.5 1041.1 3446.1 1038.2 3444.2L1001.1 3432.6 1042.9 3411.1C1046.3 3409.1 1050.2 3403.2 1046.7 3398.8 1043.2 3394.3 1038.8 3391.4 1034.4 3394.9L992.6 3416.4 1004.2 3379.3C1005.6 3373.9 1002.1 3369.5 999.2 3367.5 995.2 3367.1 990.3 3368.1 988.4 3371 988.4 3371 987.4 3372.5 987.4 3372.5L969 3426.4 912 3454.9 952.1 3332.3C953.5 3326.9 950.1 3322.5 947.1 3320.5 943.1 3320.1 938.2 3321.1 936.3 3324.1 936.3 3324.1 935.3 3325.6 935.3 3325.6L889.9 3465.9 772.4 3524.9 779.9 3393.7 890.7 3296.3C895.1 3292.8 895.1 3286.4 890.6 3283.5 887.1 3279 880.7 3279.1 877.8 3283.5L781.2 3369 784.8 3305.4 826.9 3267.1C831.3 3263.6 831.3 3257.2 826.8 3254.3 823.3 3249.9 816.9 3249.9 814 3254.4L784.6 3279.7 787.7 3232.9C788.2 3228.9 783.2 3223.5 779.3 3223.1 775.3 3222.6 771.9 3224.6 769.9 3227.6 769 3229.1 768 3230.5 768.5 3233L765.4 3279.9 740 3250.5C736.5 3246 730.1 3246.1 727.2 3250.5 727.2 3250.5 726.2 3252 726.2 3252 724.3 3255 725.3 3259.9 727.3 3263.4L765.5 3305.5 762 3369.1 676.5 3272.6C673.1 3268.2 666.7 3268.2 663.7 3272.7 663.7 3272.7 662.8 3274.2 662.8 3274.2 660.8 3277.1 661.8 3282.1 663.8 3285.5L761.2 3396.3 753.7 3527.5 643.8 3455.2 613.7 3310C612.7 3305.1 608.2 3302.1 603.3 3303.2 598.4 3304.2 595.4 3308.6 596.5 3313.6L621.5 3440.6 568 3405.5 556.8 3351.3C555.8 3346.4 551.3 3343.5 546.4 3344.5S538.5 3350 539.5 3354.9L547.2 3391.8 508.6 3366.4C504.1 3363.5 499.2 3364.5 496.2 3369 493.3 3373.4 494.3 3378.4 498.8 3381.3L537.4 3406.7 500.5 3414.3C498 3414.8 495.6 3415.3 493.6 3418.3S492.2 3423.7 492.7 3426.2C493.7 3431.1 498.2 3434 503.1 3433L557.3 3421.8 610.7 3456.9 482.7 3483.5C480.3 3484 477.8 3484.5 475.9 3487.5 474.9 3488.9 474.4 3492.9 474.9 3495.3 475.9 3500.3 480.4 3503.2 485.3 3502.2L630.6 3472.1 740.5 3544.3 623.1 3603.3 482.7 3557.9C478.8 3557.5 473.9 3558.5 471.9 3561.4 471.9 3561.4 470.9 3562.9 470.9 3562.9 469.5 3568.4 473 3572.8 476 3574.7L598.5 3614.8 541.5 3643.3 487.6 3624.9C483.7 3624.5 478.8 3625.5 476.8 3628.5 476.8 3628.5 475.8 3630 475.8 3630 474.4 3635.4 477.9 3639.8 480.8 3641.8L517.9 3653.3 476.1 3674.8C475.2 3676.3 472.7 3676.8 471.7 3678.3 469.8 3681.3 469.3 3685.2 471.3 3688.7 474.8 3693.1 479.2 3696 483.7 3692.5L525.4 3671 513.8 3708.1C512.4 3713.5 515.9 3717.9 518.9 3719.9 524.3 3721.3 528.7 3717.9 530.7 3714.9L549 3661 606 3632.5 565.9 3755.1C564.5 3760.5 568 3764.9 570.9 3766.9 578.3 3765.3 584.2 3762.8 585.7 3757.4Z" fill="rgba(46, 78, 192, 0.14)"></path><path d="M309.3 1982.5L369.4 2052 368.3 2077.3 317.4 2102.3 295.6 2088.3 278.4 1997.7C277.9 1996.7 277.9 1996.7 277.4 1995.7 276.4 1993.7 274.4 1992.2 270.9 1992.7 268 1994.1 266.5 1996.1 266.9 1999.6L282.3 2078.7 249.1 2056.6 241.9 2021.8C241.9 2021.8 241.4 2020.8 241.4 2020.8 240.5 2018.8 238.5 2017.3 235 2017.8 232.5 2017.8 230.5 2021.2 231 2024.7L234.8 2047.6 210.6 2031C208.6 2029.5 205.1 2030 202.6 2032.5S202.1 2038.9 204.5 2041.4L228.3 2057 205.9 2061.8C202.4 2062.3 200.4 2065.7 200.9 2069.2 201.8 2071.2 204.3 2073.7 207.8 2073.2L242.6 2066 276.2 2089.1 197.1 2104.5C193.6 2104.9 191.6 2108.4 191.6 2110.9 193.1 2113.9 195.6 2116.4 199 2115.9L289.1 2097.7 311.4 2112.7 307.5 2167.8 283.6 2179.6 196.3 2150.7C193.3 2149.7 190.3 2151.1 189.3 2154.1S189.8 2160.1 192.8 2161.1L269.6 2186.5 232.7 2204.6 200 2193.4C197 2192.4 194 2193.9 192 2197.4S192.5 2203.3 195.4 2204.3L218.8 2211.5 191.8 2224.7C188.8 2226.2 188.3 2230.1 189.8 2233.1 191.3 2236.1 194.2 2237.1 197.2 2235.7L224.1 2222.4 216.5 2244.7C214.5 2248.2 216 2251.2 220 2251.7 222.9 2252.7 225.9 2251.3 226.9 2248.3L238.1 2215.6 275 2197.4 248.1 2273.8C247.1 2276.7 249.1 2280.7 252.1 2281.8S258 2281.3 259 2278.3L289 2190.6 312.9 2178.8 359.4 2210.4 357.2 2236.3 287.7 2296.4C285.2 2298.9 285.7 2302.4 287.2 2305.3 289.6 2307.9 293.1 2307.4 296.1 2305.9L356.6 2252.7 353.9 2292.4 326.9 2315.6C324.4 2318 324.8 2321.5 326.3 2324.5 328.3 2326 332.2 2326.5 334.8 2324.1L352.2 2309.3 350.6 2338.6C350.5 2341.1 353 2343.6 356 2344.6 359.5 2344.1 362 2341.6 362 2339.2L363.7 2309.9 379.9 2327.9C381.9 2329.4 385.9 2329.9 387.4 2327.9 390.4 2326.4 390.4 2323.9 388.9 2321 388.9 2321 388.4 2320 388.4 2320L365.3 2293 368 2253.2 421.3 2313.7C423.8 2316.2 426.7 2317.2 429.2 2314.8 431.7 2312.3 431.7 2309.8 430.8 2307.8 430.3 2306.8 430.3 2306.8 430.3 2306.8L368.6 2236.8 370.8 2211 421.7 2186 442.4 2200.6 461.2 2291.6C461.2 2294.1 464.6 2296.1 467.1 2296.2 470.6 2295.7 472.6 2292.2 472.1 2288.7L456.8 2209.6 489.9 2231.7 497.1 2266.5C497.6 2270 500.1 2272.5 503.1 2271.1 506.6 2270.6 508.6 2267.1 508.6 2264.6L503.3 2241.2 527.5 2257.8C530.5 2258.8 534 2258.4 536.5 2255.9 537 2254.4 537 2251.9 536 2249.9 535.5 2248.9 535.5 2248.9 534 2248.4L509.8 2231.8 533.2 2226.5C536.7 2226.1 537.7 2223.1 537.7 2220.6 537.2 2219.6 537.2 2219.6 536.7 2218.6 535.7 2216.6 533.8 2215.1 531.3 2215.1L496.5 2222.3 463.3 2200.2 542.4 2184.9C545.4 2183.4 547.9 2180.9 546.5 2177.9 547 2176.5 547 2176.5 546.5 2175.5 545.5 2173.5 542.5 2172.4 540 2172.4L449 2191.2 428.2 2176.6 431.6 2120.5 454.5 2109.2 542.2 2139.2C545.2 2140.2 549.2 2138.2 550.2 2135.2S549.3 2128.3 546.3 2127.3L469.5 2101.9 505.4 2084.2 539.1 2094.9C542 2095.9 545 2094.4 546.1 2091.5 547.1 2088.5 545.6 2085.5 542.6 2084.5L520.3 2076.9 547.2 2063.7C549.2 2062.7 551.2 2059.2 549.8 2056.2 548.3 2053.2 543.8 2051.7 541.8 2052.7L514.9 2065.9 522.5 2043.6C523 2042.1 523.5 2040.6 523.1 2039.6 522.1 2037.6 520.6 2037.1 519.1 2036.6 516.1 2035.6 513.1 2037.1 512.1 2040.1L500 2073.3 464.1 2090.9 490.9 2014.6C491.4 2013.1 490.9 2012.1 490 2010.1 489.5 2009.1 489 2008.1 487.5 2007.6 484.5 2006.6 480.5 2008.5 479.5 2011.5L449.1 2098.3 426.2 2109.5 380.2 2078.9 380.8 2052.6 451.3 1991.9C452.8 1990 453.9 1987 452.9 1985 452.4 1984 452.4 1984 451.4 1984.5 449.9 1981.5 445.9 1981 443.4 1983.4L382.9 2036.7 385.2 1995.9 412.2 1972.8C413.7 1970.8 413.7 1968.3 412.7 1966.3 412.7 1966.3 412.3 1965.3 412.3 1965.3 410.8 1962.3 406.8 1961.8 404.3 1964.3L386.3 1980.6 388 1951.2C388.5 1949.8 388 1948.8 387.5 1947.8 386.6 1945.8 384.6 1944.3 383.6 1944.8 379.6 1944.2 377.1 1946.7 376.1 1949.7L374.4 1979 359.6 1961.5C357.1 1959 353.2 1958.5 350.7 1960.9 349.2 1962.9 348.6 1966.9 350.6 1968.4L373.8 1995.4 371 2035.1 317.8 1974.6C315.3 1972.1 311.8 1972.6 308.8 1974.1 307.3 1976 306.8 1980 309.3 1982.5ZM328.8 2110.3L367.7 2091.2 373.6 2088.3 379.1 2091.8 414.2 2115.4 420.1 2119.9 419.6 2126.4 416.8 2168.6 416.3 2175.1 410.3 2178 371.4 2197.1 365.4 2200 360 2196.5 324.9 2172.9 319.4 2169.4 319.5 2162 322.2 2119.7 322.8 2113.3 328.8 2110.3Z" fill="rgba(46, 78, 192, 0.14)"></path><path d="M496 1142.8L520.6 1250.3 505.1 1276.5 437.1 1274.3 422 1247.1 454.7 1141.5C454.7 1140.1 454.7 1140.1 454.8 1138.8 454.9 1136.1 453.6 1133.4 449.7 1132 445.7 1131.8 443 1133.1 441.5 1137L413.2 1229.5 390.5 1187.4 402.5 1146.5C402.5 1146.5 402.5 1145.1 402.5 1145.1 402.6 1142.5 401.4 1139.8 397.4 1138.3 394.8 1136.9 390.7 1139.4 389.3 1143.4L380.4 1169.8 364.1 1138.6C362.8 1135.9 358.9 1134.4 354.8 1135.6S350.6 1142.1 351.8 1146.2L368.2 1176.1 341.8 1168.5C337.8 1167.1 333.7 1169.6 332.3 1173.6 332.2 1176.2 333.4 1180.3 337.3 1181.7L378.3 1193.7 400.9 1237.1 308.5 1208.8C304.5 1207.4 300.4 1209.9 299 1212.5 298.9 1216.5 300.1 1220.6 304 1222L409.8 1253.4 424.9 1281.9 389.7 1338.2 357.7 1337.1 281.6 1257.3C279 1254.6 275 1254.5 272.2 1257S269.4 1263.6 271.9 1266.4L339.1 1336.5 289.8 1335 261.4 1304.7C258.8 1302 254.8 1301.8 250.7 1304.4S247.8 1311 250.4 1313.7L271.1 1334.4 235.1 1333.2C231.1 1333.1 228.3 1337 228.2 1341 228.1 1345 230.7 1347.8 234.7 1347.9L270.6 1349 250 1368.4C245.9 1370.9 245.8 1374.9 249.7 1377.7 252.3 1380.5 256.3 1380.6 259 1378L289.3 1349.6 338.6 1351.2 267.1 1417C264.4 1419.5 264.2 1424.9 266.8 1427.6S273.4 1430.5 276.1 1427.9L357.3 1351.8 389.2 1352.8 420.7 1412.5 403.8 1438.7 296.3 1463.2C292.3 1464.4 290.8 1468.4 290.7 1472.4 291.9 1476.4 295.9 1477.9 299.9 1478L394 1455.7 368.7 1496.2 327 1505.6C323 1506.8 321.5 1510.7 321.4 1514.7 322.6 1517.4 326.5 1520.2 330.6 1519L357.4 1513.2 339.1 1543.3C337.7 1545.9 338.9 1550 341.5 1552.7 345.5 1554.2 349.5 1553 350.9 1550.4L369.2 1520.3 376.3 1548.5C377.6 1551.2 381.5 1554 384.2 1552.8 388.2 1552.9 389.6 1550.3 389.7 1546.3 389.7 1546.3 389.8 1544.9 389.8 1544.9L380.4 1503.3 405.7 1462.7 428.1 1556.8C429.3 1560.9 431.9 1563.6 435.9 1562.4 439.9 1561.2 441.4 1558.6 441.4 1555.9 441.5 1554.6 441.5 1554.6 441.5 1554.6L415.6 1445.7 432.5 1419.6 500.4 1421.7 514.2 1448.9 482.8 1555.9C481.4 1558.5 483.9 1562.6 486.5 1564 490.5 1565.5 494.6 1563 496 1559L524.3 1466.5 547 1508.6 535 1549.6C533.6 1553.5 534.8 1557.6 538.8 1557.7 542.7 1559.2 546.8 1556.6 548.2 1554L555.8 1526.2 572.1 1557.4C574.7 1560.2 578.7 1561.6 582.7 1560.4 584.1 1559.1 585.5 1556.5 585.6 1553.9 585.6 1552.5 585.6 1552.5 584.3 1551.2L568 1519.9 595.8 1527.5C599.7 1529 602.5 1526.4 603.9 1523.8 603.9 1522.4 603.9 1522.4 604 1521.1 604.1 1518.4 602.8 1515.7 600.2 1514.3L559.2 1502.3 536.6 1460.2 629 1488.5C633 1488.7 637.1 1487.5 637.2 1483.5 638.6 1482.2 638.6 1482.2 638.6 1480.8 638.7 1478.2 636.1 1475.4 633.5 1474L526.4 1442.6 512.6 1415.5 547.8 1357.9 578.5 1358.9 654.6 1440C657.2 1442.8 662.5 1442.9 665.3 1440.3S668.2 1432.4 665.6 1429.7L598.5 1359.5 646.4 1361 676.2 1391.3C678.7 1394.1 682.7 1394.2 685.5 1391.6 688.2 1389.1 688.4 1385.1 685.8 1382.3L666.4 1361.7 702.4 1362.8C705.1 1362.9 709.2 1360.4 709.3 1356.4 709.4 1352.4 705.5 1348.3 702.9 1348.2L666.9 1347 687.5 1327.7C688.9 1326.4 690.3 1325.1 690.3 1323.8 690.4 1321.1 689.1 1319.7 687.8 1318.3 685.2 1315.6 681.3 1315.5 678.5 1318L646.9 1346.4 598.9 1344.8 670.4 1279.1C671.8 1277.8 671.8 1276.5 671.9 1273.8 672 1272.5 672 1271.1 670.7 1269.8 668.1 1267 662.8 1266.8 660 1269.4L578.9 1344.2 548.3 1343.2 516.8 1284.9 532.4 1257.3 641.2 1232.8C643.9 1231.6 646.7 1229 646.7 1226.3 646.8 1225 646.8 1225 645.5 1224.9 645.6 1220.9 641.7 1218.1 637.6 1219.4L543.5 1241.7 568.9 1199.8 610.5 1190.5C613.2 1189.2 614.7 1186.6 614.8 1183.9 614.8 1183.9 614.8 1182.6 614.8 1182.6 614.9 1178.6 611 1175.8 607 1177L578.7 1184.1 597 1154C598.4 1152.7 598.4 1151.4 598.5 1150.1 598.6 1147.4 597.3 1144.7 596 1144.7 592.1 1141.9 588 1143.1 585.3 1145.6L567 1175.7 561.2 1148.9C560 1144.8 556.1 1142 552 1143.2 549.3 1144.5 546.5 1148.4 547.8 1151.1L557.1 1192.8 531.8 1233.3 509.5 1139.2C508.3 1135.2 504.3 1133.7 500.3 1133.6 497.6 1134.8 494.8 1138.7 496 1142.8ZM444.6 1289.2L496.6 1290.9 504.6 1291.1 508.4 1297.9 532.3 1342.7 536 1350.8 531.8 1357.4 505.1 1400.5 500.9 1407.1 492.9 1406.8 440.9 1405.2 432.9 1404.9 429.1 1398.1 405.2 1353.3 401.4 1346.5 405.7 1338.7 432.4 1295.5 436.6 1289 444.6 1289.2Z" fill="rgba(46, 78, 192, 0.14)"></path><path d="M585.7 334.3L649.8 298.5 669.5 303.5 680.9 347.4 666.3 362.1 592.6 361C591.7 361.2 591.7 361.2 590.9 361.5 589.1 361.9 587.6 363.2 587.4 366 588.1 368.6 589.4 370.1 592.2 370.3L656.7 371.1 634 393.4 605.6 393.5C605.6 393.5 604.7 393.7 604.7 393.7 603 394.1 601.5 395.4 601.3 398.2 600.9 400.2 603.3 402.3 606.1 402.5L624.6 403.2 607.7 419.5C606.2 420.8 606 423.6 607.5 426S612.5 427.5 614.9 425.9L630.9 409.9 631.1 428.2C630.9 431 633.3 433.1 636.1 433.3 637.8 432.9 640.1 431.3 640.3 428.5L640.3 400.1 663.9 377.5 663.1 441.9C662.9 444.7 665.3 446.9 667.2 447.3 669.8 446.6 672.2 445.1 672.4 442.3L672.6 368.8 688 353.8 730.6 365.7 735.9 386.4 699.2 450C697.9 452.2 698.5 454.8 700.7 456.1S705.5 456.7 706.7 454.5L739.1 398.4 747.3 430.3 733.2 454.1C732 456.2 732.6 458.8 735 461S739.8 461.6 741.1 459.4L750.4 442.3 756.4 465.5C757.1 468.1 760.1 469.2 762.7 468.5 765.3 467.8 766.5 465.7 765.9 463.1L759.9 439.9 776.1 449.4C778.5 451.6 781.1 450.9 782.1 447.9 783.4 445.7 782.7 443.1 780.6 441.8L756.8 427.8 748.5 396 804 429.4C806.1 430.6 809.6 429.7 810.9 427.6S811.5 422.8 809.3 421.6L745.4 383.9 740.1 363.3 772.4 332 792.2 337.8 828.1 402C829.6 404.4 832.5 404.6 835 403.9 837.4 402.4 837.6 399.6 836.9 397L805 341 835.7 349.6 849.5 374.5C851 376.8 853.8 377 856.4 376.3 857.9 375 858.9 372 857.4 369.6L848.6 353.5 871.3 359.6C873.3 360 875.6 358.5 876.9 356.3 877.1 353.5 875.6 351.2 873.6 350.8L850.9 344.7 867.7 334.8C869.2 333.5 870.2 330.5 868.9 329 868.3 326.4 866.3 326 863.7 326.7 863.7 326.7 862.9 326.9 862.9 326.9L838 340.7 807.3 332.1 863.3 300.2C865.7 298.6 866.9 296.5 865.4 294.1 863.9 291.8 861.9 291.3 860.2 291.8 859.4 292 859.4 292 859.4 292L794.5 329 774.7 323.1 763.3 279.2 778.1 265.3 852.5 265.3C854.4 265.8 856.5 263.4 857 261.4 857.1 258.6 854.8 256.5 851.9 256.3L787.5 255.5 810.2 233.1 838.6 233.1C841.4 233.3 843.8 231.8 843.1 229.2 843.3 226.4 840.9 224.3 839 223.8L819.8 224.2 836.7 207.9C838 205.7 838.2 202.9 836.6 200.6 835.5 199.9 833.6 199.5 831.9 200 831 200.2 831 200.2 830.4 201.3L813.5 217.6 813.1 198.4C813.3 195.6 811.1 194.3 809.2 193.9 808.3 194.1 808.3 194.1 807.5 194.3 805.7 194.8 804.2 196.1 803.8 198L803.8 226.5 781.2 248.9 781.9 184.4C781.3 181.8 779.8 179.5 777.2 180.1 776.1 179.5 776.1 179.5 775.2 179.7 773.5 180.2 772.2 182.3 771.8 184.3L771.8 258.7 757 272.6 713.6 260.9 708.5 241.1 746.1 177.2C747.4 175 746.5 171.5 744.3 170.3S738.7 169.9 737.4 172.1L705.1 228.2 697.1 197.2 710.9 172.5C712.2 170.3 711.5 167.7 709.4 166.5 707.2 165.2 704.6 165.8 703.3 168L693.8 184.3 687.8 161C687.3 159.3 684.9 157.2 682.3 157.8 679.8 158.5 677.8 161.8 678.3 163.5L684.3 186.7 668.1 177.1C667 176.5 665.9 175.9 665 176.1 663.3 176.5 662.7 177.6 662 178.7 660.8 180.9 661.4 183.4 663.6 184.7L687.6 199.6 695.7 230.6 640.2 197.2C639.1 196.6 638.2 196.8 636.5 197.2 635.7 197.5 634.8 197.7 634.2 198.8 632.9 200.9 633.8 204.4 635.9 205.6L699 243.5 704.1 263.3 672.7 294.4 652.1 289.6 616 224.6C614.7 223.1 612.6 221.8 610.9 222.2 610 222.5 610 222.5 610.2 223.3 607.6 224 606.6 227 608.1 229.4L640 285.4 608.5 277 594.7 252.1C593.4 250.6 591.5 250.2 589.7 250.6 589.7 250.6 588.9 250.9 588.9 250.9 586.3 251.5 585.2 254.6 586.8 256.9L596.6 273.7 573.9 267.6C572.8 267 572 267.2 571.1 267.4 569.4 267.8 567.9 269.1 568.1 270 567.1 273 568.6 275.4 570.8 276.7L593.5 282.7 577.4 291.5C575 293 573.9 296 575.5 298.4 576.8 299.9 579.8 301 581.3 299.7L606.2 285.9 636.9 294.5 580.9 326.4C578.5 327.9 578.3 330.7 579 333.3 580.3 334.8 583.3 335.9 585.7 334.3ZM689 339.7L680.3 306.2 679 301 682.6 297.3 706.8 273.6 711.3 269.7 716.2 271.2 748.9 280.2 753.8 281.7 755.2 286.8 763.9 320.4 765.2 325.5 761.6 329.2 737.4 352.9 733.8 356.6 727.9 355.4 695.3 346.4 690.3 344.9 689 339.7Z" fill="rgba(46, 78, 192, 0.14)"></path><path d="M1296.8 2720L1257.8 2704.7 1279.1 2686.4C1281.6 2684.6 1282.2 2680.5 1280.3 2676.7 1277.2 2674.5 1273 2673.9 1270.6 2675.6L1242.1 2699.2 1205.9 2684.9 1264.4 2637.5C1267.9 2634.2 1268.5 2630 1265.5 2627.8 1263.5 2624.1 1259.3 2623.4 1255.8 2626.7L1191.5 2679.1 1158.4 2667 1145.2 2586.7 1169 2566.6 1251.3 2599.1C1252.6 2598.8 1253.9 2598.6 1255.2 2598.4 1256.6 2598.2 1259 2596.5 1260.1 2594.9 1262.1 2590.5 1260.1 2586.8 1255.9 2586.1L1180.8 2556.6 1210.7 2532.8 1249.5 2546.7C1249.7 2548 1251 2547.8 1252.3 2547.6 1254.9 2547.1 1257.3 2545.4 1258.2 2542.5 1259.1 2539.7 1257.2 2535.9 1254.1 2533.8L1222.6 2522.7 1259.5 2492.3C1261.9 2490.6 1262.5 2486.4 1260.6 2482.7 1257.5 2480.5 1253.3 2479.8 1250.9 2481.6L1216.4 2510.2 1211.9 2482.6C1211.3 2478.6 1206.9 2476.6 1204.3 2477.1 1200.3 2477.7 1196.8 2481 1197.4 2484.9L1203.3 2520.5 1173.4 2544.3 1161.3 2470.6C1160.7 2466.7 1157.6 2464.5 1153.6 2465.1 1149.7 2465.8 1147.5 2468.8 1148.1 2472.8L1161.5 2554.3 1136.7 2576 1060.3 2546.6 1055.3 2516.4 1120.8 2462.4C1124.5 2460.4 1125 2455 1121.9 2452.8 1119.9 2449 1116 2449.7 1112.3 2451.6L1052.7 2500.6 1046.5 2462.4 1076.3 2438.6C1078.8 2436.9 1079.2 2431.4 1077.5 2429S1070.2 2426.1 1066.5 2428.1L1043.9 2446.6 1036.3 2400.6C1035.7 2396.6 1031.3 2394.7 1027.3 2395.3 1024.7 2395.7 1021.2 2399 1021.8 2403L1029.4 2449 1000.7 2438.9C997.9 2438 993.9 2438.6 991.9 2443 991 2445.9 993.2 2450.9 996.1 2451.8L1032 2464.8 1038.3 2503 966.2 2475.6C962 2474.9 958.1 2475.6 956.1 2480 955.2 2482.8 957.4 2487.9 960.3 2488.7L1040.8 2518.8 1045.8 2549 982.8 2601.2 952.3 2588.7 938.9 2507.1C938.3 2503.2 935.2 2501 931.3 2501.6 927.3 2502.3 923.8 2505.5 924.5 2509.5L936.6 2583.2 900.6 2570.1 894.8 2534.6C894.2 2530.7 891.1 2528.5 887.2 2529.1 883.2 2529.8 881 2532.8 881.7 2536.8L886.2 2564.4 844.4 2548.3C841.5 2547.4 836.5 2549.6 835.6 2552.4 834.9 2556.6 835.6 2560.5 839.7 2561.2L883.1 2578.4 858.1 2598.7C855.9 2601.8 855.2 2606 856.9 2608.4 858.7 2610.8 861.5 2611.7 864.2 2611.3 864.2 2611.3 865.5 2611 866.6 2609.5L898.9 2583.9 934.8 2597 873.1 2649C869.3 2650.9 868.7 2655.1 871.9 2658.6 873.5 2659.7 875 2660.8 877.6 2660.4 878.9 2660.2 880.3 2660 881.6 2659.7L949.2 2602.7 978.1 2614.2 991.3 2694.4 963.9 2716.5 886.1 2687.4C881.7 2685.4 878 2687.4 877.3 2691.5 875.1 2694.6 877.1 2698.3 881.5 2700.3L952 2726.6 922.3 2751.7 887.7 2738.4C884.9 2737.6 881.2 2739.5 879 2742.6 878.3 2746.8 878.9 2750.7 883.1 2751.4L909.2 2762 877.1 2788.8C873.4 2790.8 874 2794.7 876 2798.5 877.5 2799.6 880.3 2800.5 883 2800 883 2800 884.3 2799.8 885.6 2799.6L920.1 2771 925.5 2803.9C925.9 2806.5 929.2 2810 933.2 2809.4 937.1 2808.7 939.1 2804.3 938.7 2801.7L932 2760.9 961.6 2735.8 974.8 2816C975.4 2820 979.8 2822 983.8 2821.3S989.9 2817.6 989.3 2813.7L974.8 2725.5 999.8 2705.2 1076.3 2734.5 1081.9 2768.7 1015.1 2822.9C1012.9 2826 1012.2 2830.2 1014.2 2833.9 1015.7 2835 1018.6 2835.9 1021.2 2835.4 1022.5 2835.2 1023.8 2835 1024.9 2833.5L1084.5 2784.5 1090.7 2822.7 1061.1 2847.8C1058.7 2849.6 1058 2853.7 1060 2857.5 1063 2859.7 1067.2 2860.3 1069.6 2858.6L1093.3 2838.5 1100.2 2880.6C1100.7 2883.2 1105.3 2886.5 1107.9 2886.1 1111.8 2885.4 1115.1 2880.8 1114.7 2878.2L1107.8 2836.1 1135.4 2847.8C1136.7 2847.6 1138 2847.4 1139.3 2847.1 1142 2846.7 1144.4 2845 1145.5 2843.4 1146.1 2839.3 1144.2 2835.5 1141.1 2833.3L1105.2 2820.3 1098.9 2782.2 1171 2809.5C1175.4 2811.5 1179.1 2809.5 1180 2806.7 1182 2802.3 1180 2798.6 1176.9 2796.4L1096.3 2766.4 1090.7 2732.2 1153.8 2679.9 1184 2691.2 1198.5 2779.3C1199.1 2783.3 1202.2 2785.5 1206.1 2784.8 1210.1 2784.2 1212.3 2781.1 1211.6 2777.2L1198.4 2696.9 1234.6 2711.3 1241.3 2752C1241.7 2754.7 1246.3 2758 1250.2 2757.3 1254.2 2756.7 1256.2 2752.3 1255.7 2749.7L1250.3 2716.8 1292.2 2732.9C1293.5 2732.7 1293.5 2732.7 1294.8 2732.4 1297.4 2732 1299.9 2730.3 1301 2728.7 1301.6 2724.6 1299.7 2720.8 1296.8 2720ZM1088.1 2716.4L1080.9 2721.6 1073.7 2718.7 1011.7 2695.1 1004.5 2692.3 1003.2 2684.4 992.6 2619.9 991.3 2612 997.2 2607 1048.4 2564.8 1054.3 2559.8 1062.9 2562.4 1123.5 2586.3 1132.1 2588.9 1133.4 2596.8 1144 2661.3 1145.2 2669.2 1138 2674.4 1088.1 2716.4Z" fill="rgba(46, 78, 192, 0.14)"></path><path d="M1040.1 923.1L1179.6 971 1236.5 1089.5 1105.4 1079.6 1010.1 967.1C1010.1 967.1 1008.6 966.1 1008.6 966.1 1005.6 964.1 1000.7 965 997.2 967 992.8 970.4 992.7 976.8 997.1 979.8L1080.8 1077.9 1017.2 1073.2 979.7 1030.4C979.7 1030.4 978.3 1029.4 978.3 1029.4 975.3 1027.4 970.4 1028.3 966.9 1030.2 962.5 1033.6 962.4 1040.1 966.8 1043.1L991.6 1072.9 944.8 1069C940.9 1068.4 935.4 1073.3 934.8 1077.2 933.3 1082.6 939.2 1086.6 943.1 1087.2L989.9 1091.2 960 1116C955.6 1119.4 955.5 1125.8 959.9 1128.8 963.3 1133.3 969.7 1133.3 972.7 1128.9L1015.5 1091.5 1078.1 1097.6 980 1181.3C975.5 1184.7 975.5 1191.1 979.9 1194.1 983.3 1198.6 989.7 1198.7 992.7 1194.2L1105.2 1098.9 1236.3 1108.7 1161 1218.8 1015.3 1246.3C1010.3 1247.2 1007.3 1251.6 1008.2 1256.6 1009.2 1261.5 1013.6 1264.5 1018.5 1263.6L1147 1239.4 1110.9 1292.2 1056.5 1302.5C1051.6 1303.4 1048.6 1307.8 1049.5 1312.7 1050.5 1317.7 1054.9 1320.7 1059.8 1319.8L1096.9 1312.8 1068.8 1353.9C1064.3 1357.3 1066.7 1363.2 1071.1 1366.2 1075.5 1369.3 1080.4 1368.3 1083.5 1363.9L1109.5 1325.8 1116.5 1362.8C1117.4 1367.8 1121.8 1370.8 1126.8 1369.8S1134.7 1364.5 1133.8 1359.6L1123.6 1305.2 1159.7 1252.4 1183.9 1380.8C1184.8 1385.8 1189.2 1388.8 1194.1 1387.9 1199.1 1386.9 1202.1 1382.5 1201.2 1377.6L1173.7 1231.8 1247.9 1123.2 1304.8 1241.7 1257.4 1377.2C1255.8 1382.6 1259.2 1387.1 1263.6 1390.1 1269 1391.7 1273.5 1388.3 1276.5 1383.9L1318.8 1262.1 1346.3 1319.6 1326.9 1373.1C1325.4 1378.5 1328.8 1383 1333.2 1386 1338.6 1387.5 1343.1 1384.1 1345.1 1381.2L1357.4 1344.3 1378.1 1386.5C1380 1390 1385.9 1394 1390.4 1390.6 1394.8 1387.2 1397.8 1382.8 1394.4 1378.3L1373.7 1336.1 1410.6 1348.4C1416 1349.9 1420.4 1346.5 1422.4 1343.6 1423 1339.7 1422.1 1334.7 1419.1 1332.7 1419.1 1332.7 1417.7 1331.7 1417.7 1331.7L1364.1 1312.4 1336.7 1254.9 1458.5 1297.2C1463.9 1298.7 1468.4 1295.3 1470.4 1292.4 1470.9 1288.4 1470 1283.5 1467 1281.5 1467 1281.5 1465.6 1280.5 1465.6 1280.5L1326.1 1232.5 1269.2 1114.1 1400.3 1123.9 1495.7 1236.4C1499.1 1240.9 1505.5 1241 1508.5 1236.6 1513 1233.2 1513 1226.8 1508.6 1223.8L1424.9 1125.7 1488.5 1130.3 1526 1173.2C1529.4 1177.7 1535.8 1177.7 1538.8 1173.3 1543.3 1169.9 1543.3 1163.5 1538.9 1160.5L1514.1 1130.6 1560.9 1134.6C1564.9 1135.2 1570.3 1130.3 1570.9 1126.4 1571.4 1122.4 1569.5 1118.9 1566.5 1116.9 1565.1 1115.9 1563.6 1114.9 1561.1 1115.4L1514.3 1111.4 1544.2 1086.6C1548.7 1083.2 1548.7 1076.8 1544.3 1073.8 1544.3 1073.8 1542.9 1072.8 1542.9 1072.8 1539.9 1070.8 1535 1071.7 1531.5 1073.6L1488.7 1111.1 1425.1 1106.5 1523.2 1022.8C1527.7 1019.4 1527.8 1012.9 1523.4 1009.9 1523.4 1009.9 1521.9 1008.9 1521.9 1008.9 1519 1006.9 1514 1007.9 1510.6 1009.8L1398 1105.2 1267 1095.3 1341.2 986.7 1487 959.2C1491.9 958.3 1494.9 953.9 1494 948.9 1493.1 944 1488.7 941 1483.7 941.9L1356.2 964.6 1392.3 911.8 1446.7 901.6C1451.6 900.6 1454.6 896.2 1453.7 891.3S1448.4 883.3 1443.4 884.3L1406.4 891.2 1432.4 853.1C1435.5 848.7 1434.5 843.7 1430.1 840.7 1425.7 837.7 1420.8 838.7 1417.8 843.1L1391.7 881.2 1384.7 844.2C1384.3 841.7 1383.8 839.2 1380.9 837.2S1375.4 835.7 1373 836.1C1368 837.1 1365 841.5 1366 846.4L1376.2 900.8 1340.1 953.6 1315.9 825.1C1315.4 822.7 1315 820.2 1312 818.2 1310.6 817.2 1306.6 816.6 1304.2 817.1 1299.2 818 1296.2 822.4 1297.1 827.4L1324.6 973.2 1250.4 1081.8 1193.5 963.3 1241.5 823.8C1242 819.9 1241.1 814.9 1238.1 812.9 1238.1 812.9 1236.7 811.9 1236.7 811.9 1231.3 810.4 1226.8 813.8 1224.8 816.7L1182.5 938.5 1155 881 1174.4 827.5C1174.9 823.5 1174 818.6 1171 816.6 1171 816.6 1169.6 815.6 1169.6 815.6 1164.2 814 1159.7 817.4 1157.7 820.4L1145.4 857.2 1124.7 815.1C1123.2 814.1 1122.8 811.6 1121.3 810.6 1118.4 808.6 1114.4 808.1 1110.9 810 1106.5 813.4 1103.5 817.8 1106.9 822.3L1127.6 864.4 1090.7 852.2C1085.3 850.6 1080.9 854 1078.9 857 1077.3 862.4 1080.7 866.8 1083.7 868.8L1137.2 888.2 1164.6 945.7 1042.8 903.4C1037.4 901.9 1032.9 905.3 1030.9 908.2 1032.3 915.6 1034.7 921.5 1040.1 923.1Z" fill="rgba(46, 78, 192, 0.14)"></path><path d="M1472.6 3576.6L1459.4 3667.6 1439.5 3683.3 1387.3 3661.2 1383.7 3635.5 1440.9 3563.2C1441.3 3562.2 1441.3 3562.2 1441.7 3561.2 1442.6 3559.1 1442.4 3556.6 1439.8 3554.3 1436.7 3553 1434.3 3553.2 1431.9 3555.8L1382.2 3619.2 1377.2 3579.7 1398.8 3551.4C1398.8 3551.4 1399.2 3550.4 1399.2 3550.4 1400.1 3548.4 1399.9 3545.9 1397.3 3543.6 1395.7 3541.7 1391.8 3542.4 1389.4 3545L1374.6 3562.9 1371.3 3533.7C1371.1 3531.3 1368.5 3528.9 1365 3528.7S1359.8 3532.5 1359.5 3536L1363.3 3564.1 1345 3550.3C1342.3 3548 1338.4 3548.8 1336.1 3551.4 1335.2 3553.4 1334.9 3556.9 1337.6 3559.3L1365.8 3580.9 1370.4 3621.4 1307 3571.6C1304.3 3569.3 1300.4 3570.1 1298.5 3571.7 1297.2 3574.8 1296.9 3578.3 1299.6 3580.6L1372.3 3636.7 1375.5 3663.4 1331.3 3696.6 1306.7 3686.2 1271.5 3601.3C1270.3 3598.4 1267.2 3597.1 1264.3 3598.2S1260.1 3602.5 1261.3 3605.4L1292.4 3680.1 1254.5 3664.1 1241.6 3632C1240.4 3629.1 1237.3 3627.8 1233.4 3628.6S1229.2 3632.8 1230.3 3635.7L1240.2 3658 1212.6 3646.3C1209.5 3645 1206.2 3647.2 1204.9 3650.3 1203.6 3653.3 1204.8 3656.3 1207.8 3657.6L1235.5 3669.3 1213.6 3678.1C1209.7 3678.9 1208.4 3681.9 1210.6 3685.3 1211.7 3688.2 1214.8 3689.5 1217.7 3688.3L1249.8 3675.3 1287.6 3691.4 1212.3 3721C1209.4 3722.2 1207.7 3726.3 1208.9 3729.2S1213.1 3733.4 1216 3732.2L1302 3697.4 1326.5 3707.8 1333 3763.7 1312.1 3778.9 1221.1 3765.8C1217.6 3765.5 1215.3 3768.1 1214 3771.2 1213.7 3774.7 1216.3 3777 1219.4 3778.3L1299.3 3789.2 1267.4 3813.1 1232.2 3807.9C1228.7 3807.6 1226.4 3810.2 1225.1 3813.3 1225.3 3815.8 1227.5 3819.1 1231 3819.4L1253.6 3823 1230.3 3840.9C1228.4 3842.5 1228.2 3846 1229.3 3848.9 1232 3851.2 1235.5 3851.5 1237.4 3849.9L1260.6 3832 1257.7 3856.1C1257.8 3858.5 1260 3861.9 1262.5 3861.7 1265.6 3863 1267.5 3861.4 1268.8 3858.3 1268.8 3858.3 1269.2 3857.3 1269.2 3857.3L1274.5 3822.1 1306.3 3798.2 1295.4 3878.1C1295.1 3881.6 1296.3 3884.5 1299.8 3884.8 1303.3 3885.1 1305.2 3883.4 1306.1 3881.4 1306.5 3880.4 1306.5 3880.4 1306.5 3880.4L1319.1 3788 1340.1 3772.7 1392.2 3794.8 1394.8 3820 1338.2 3893.8C1336.3 3895.4 1337.1 3899.4 1338.7 3901.2 1341.3 3903.6 1345.3 3902.8 1347.6 3900.2L1397.4 3836.8 1402.3 3876.3 1380.7 3904.6C1378.4 3907.2 1378.1 3910.7 1381.2 3912 1383.8 3914.3 1387.8 3913.6 1389.7 3912L1403.9 3892.7 1407.2 3921.8C1408.4 3924.7 1411 3927.1 1414.5 3927.3 1416 3926.7 1417.9 3925.1 1418.7 3923.1 1419.2 3922.1 1419.2 3922.1 1418.6 3920.6L1415.2 3891.4 1434.6 3905.7C1437.2 3908 1440.1 3906.8 1442 3905.2 1442.4 3904.2 1442.4 3904.2 1442.9 3903.1 1443.7 3901.1 1443.6 3898.6 1442 3896.7L1413.7 3875.1 1408.7 3835.6 1472.1 3885.4C1475.2 3886.7 1478.7 3886.9 1480 3883.9 1481.4 3883.3 1481.4 3883.3 1481.9 3882.3 1482.7 3880.2 1481.6 3877.3 1480 3875.4L1406.2 3818.8 1403.6 3793.6 1448.3 3759.4 1471.8 3769.4 1506.6 3855.3C1507.8 3858.2 1511.8 3860 1514.8 3858.8S1519.4 3853.5 1518.2 3850.6L1487.1 3775.9 1524 3791.5 1538 3824C1539.1 3826.9 1542.2 3828.2 1545.1 3827 1548 3825.8 1549.3 3822.7 1548.2 3819.8L1539.3 3798 1566.9 3809.7C1569 3810.6 1572.9 3809.8 1574.2 3806.7 1575.5 3803.7 1573.7 3799.3 1571.7 3798.4L1544.1 3786.7 1565.9 3777.9C1567.4 3777.3 1568.8 3776.7 1569.3 3775.7 1570.1 3773.6 1569.5 3772.2 1569 3770.7 1567.8 3767.8 1564.7 3766.5 1561.8 3767.7L1528.7 3780.2 1491.9 3764.6 1567.2 3735C1568.7 3734.4 1569.1 3733.4 1570 3731.3 1570.4 3730.3 1570.8 3729.3 1570.2 3727.8 1569.1 3724.9 1565 3723.2 1562.1 3724.4L1476.6 3758.1 1453 3748.2 1446.1 3693.3 1466.4 3676.6 1558.4 3690.2C1560.9 3690.1 1563.8 3688.9 1564.7 3686.9 1565.1 3685.8 1565.1 3685.8 1564.1 3685.4 1565.4 3682.3 1563.2 3679 1559.7 3678.7L1479.8 3667.8 1512.1 3642.9 1547.3 3648.1C1549.8 3648 1551.7 3646.4 1552.5 3644.3 1552.5 3644.3 1553 3643.3 1553 3643.3 1554.3 3640.2 1552.1 3636.9 1548.6 3636.6L1524.5 3633.6 1547.7 3615.7C1549.2 3615.1 1549.6 3614.1 1550.1 3613.1 1550.9 3611 1550.8 3608.6 1549.8 3608.1 1547.5 3604.8 1544 3604.5 1541.1 3605.7L1517.9 3623.6 1521.4 3601C1521.7 3597.5 1519.5 3594.1 1516 3593.8 1513.5 3594 1510.2 3596.2 1510.3 3598.7L1505.1 3633.9 1473.2 3657.8 1484.1 3577.9C1484.4 3574.4 1481.8 3572.1 1478.7 3570.8 1476.2 3570.9 1472.9 3573.1 1472.6 3576.6ZM1388.7 3675L1428.6 3691.9 1434.7 3694.5 1435.6 3701 1440.7 3743 1441.2 3750.4 1436 3754.2 1402.2 3779.7 1397 3783.6 1390.9 3781 1351 3764 1344.8 3761.4 1343.9 3755 1338.8 3713 1337.9 3706.6 1343.5 3701.8 1377.3 3676.3 1382.5 3672.4 1388.7 3675Z" fill="rgba(46, 78, 192, 0.14)"></path></g><defs><mask id="SvgjsMask2714"><rect width="1440" height="4000" fill="#ffffff"></rect></mask><filter id="SvgjsFilter2715"><feGaussianBlur stdDeviation="1"></feGaussianBlur></filter></defs></svg>